<!--?xml version="1.0" standalone="no"?-->

<svg version="1.0" xmlns="http://www.w3.org/2000/svg" width="300.000000pt" height="300.000000pt" viewBox="0 0 300.000000 300.000000" preserveAspectRatio="xMidYMid meet">
<g transform="translate(0.000000,300.000000) scale(0.100000,-0.100000)" fill="#0E0E0E" stroke="none">
<path class="node" id="node1" d="M1300 2944 c-651 -84 -1164 -601 -1245 -1258 -19 -156 -19 -207 0
-363 25 -201 54 -297 140 -468 67 -131 128 -223 212 -316 250 -281 586 -450
952 -481 418 -34 802 88 1094 350 172 154 300 326 373 506 14 34 29 70 35 81
32 67 70 240 80 371 25 306 -23 556 -156 814 -103 199 -289 408 -470 528 -68
44 -249 142 -290 156 -11 3 -31 10 -45 15 -126 44 -364 82 -502 80 -40 -1
-120 -8 -178 -15z m430 -85 c288 -52 527 -176 731 -379 91 -90 219 -252 219
-276 0 -4 6 -15 13 -23 21 -24 102 -217 126 -296 31 -105 54 -268 54 -380 0
-159 -43 -385 -98 -512 -86 -197 -169 -321 -313 -464 -216 -213 -459 -337
-757 -385 -275 -44 -540 -3 -805 123 -154 74 -254 145 -380 272 -149 150 -247
304 -318 501 -32 90 -48 143 -57 200 -3 19 -10 59 -15 89 -16 89 -12 278 9
398 102 584 542 1026 1126 1133 141 26 321 25 465 -1z"></path>
<path class="node" id="node2" d="M1625 2276 c-116 -53 -111 -259 7 -322 35 -18 91 -18 128 1 62 32 89
147 55 232 -30 76 -124 120 -190 89z"></path>
<path class="node" id="node3" d="M1042 2000 c-41 -25 -62 -73 -62 -140 0 -66 18 -108 64 -148 31 -27
44 -32 89 -32 39 1 59 6 78 23 82 69 81 207 -2 282 -33 30 -46 35 -87 35 -29
0 -59 -8 -80 -20z"></path>
<path class="node" id="node4" d="M1795 1353 c-268 -57 -489 -256 -574 -516 -10 -30 -17 -37 -32 -32
-13 4 -19 2 -19 -8 0 -17 76 -57 108 -57 32 0 74 19 67 30 -4 6 -11 8 -16 5
-21 -14 -6 37 34 113 46 91 107 168 177 225 57 48 187 112 265 132 137 35 319
9 458 -64 59 -30 72 -41 70 -59 -3 -28 21 -29 65 -2 43 26 83 120 52 120 -5 0
-10 -7 -10 -15 0 -21 -5 -19 -53 14 -165 113 -393 157 -592 114z"></path>
</g>
<g transform="translate(0.000000,300.000000) scale(0.100000,-0.100000)" fill="#A0A0A0" stroke="none">

<path class="node" id="node6" d="M1265 2860 c-271 -49 -519 -174 -719 -360 -147 -137 -287 -361 -356
-569 -62 -183 -88 -448 -60 -602 5 -30 12 -70 15 -89 25 -151 108 -351 214
-510 69 -104 238 -277 346 -352 98 -68 280 -157 395 -192 396 -121 824 -53
1180 187 94 64 272 239 339 335 81 114 157 270 196 402 74 247 75 533 4 775
-24 79 -105 272 -126 296 -7 8 -13 19 -13 23 0 4 -26 45 -57 89 -77 111 -248
279 -355 350 -299 198 -668 278 -1003 217z m501 -608 c88 -70 84 -250 -6 -297
-128 -66 -260 83 -209 236 33 96 134 125 215 61z m-557 -267 c83 -75 84 -213
2 -282 -19 -17 -39 -22 -78 -23 -45 0 -58 5 -89 32 -46 40 -64 82 -64 148 0
103 51 160 142 160 41 0 54 -5 87 -35z m886 -629 c117 -23 206 -59 292 -117
48 -33 53 -35 53 -14 0 8 5 15 10 15 31 0 -9 -94 -52 -120 -44 -27 -68 -26
-65 2 2 18 -11 29 -70 59 -139 73 -321 99 -458 64 -78 -20 -208 -84 -265 -132
-70 -57 -131 -134 -177 -225 -40 -76 -55 -127 -34 -113 5 3 12 1 16 -5 7 -11
-35 -30 -67 -30 -32 0 -108 40 -108 57 0 10 6 12 19 8 15 -5 22 2 32 32 69
213 239 395 446 478 129 52 293 68 428 41z"></path>
</g>
</svg>